<?xml version="1.0" encoding="iso-8859-1"?>
<!-- Uploaded to: SVG Repo, www.svgrepo.com, Generator: SVG Repo Mixer Tools -->
<svg height="800px" width="800px" version="1.1" id="Layer_1" xmlns="http://www.w3.org/2000/svg" xmlns:xlink="http://www.w3.org/1999/xlink" 
	 viewBox="0 0 451.277 451.277" xml:space="preserve">
<circle style="fill:#45B39C;" cx="225.638" cy="225.638" r="225.638"/>
<path style="opacity:0.1;enable-background:new    ;" d="M450.101,248.95L314.14,113.023l-0.329-0.33
	c-0.705-0.705-1.645-1.128-2.68-1.128h-4.56l-10.155-10.108l-0.423-0.47l-0.94-0.94c-2.492-2.304-5.782-3.714-9.402-3.714H165.629
	c-7.71,0-13.963,6.3-13.963,14.01v1.222h-11.518c-1.739,0-3.291,1.175-3.761,2.821l-4.043,14.809
	c-0.423,1.504,0.094,3.008,1.222,3.949h-0.047l9.779,9.778l7.193,54.911l12.27,93.319l6.958,52.888
	c0.376,2.915,1.692,5.453,3.667,7.287l95.74,95.74C365.492,428.247,439.921,348.136,450.101,248.95z"/>
<path style="fill:#D15241;" d="M299.625,116.862H151.652v-5.275c0-8.413,6.82-15.233,15.233-15.233h117.508
	c8.413,0,15.233,6.82,15.233,15.233V116.862z"/>
<path style="fill:#E56353;" d="M318.941,129.184l-4.056-14.775c-0.463-1.685-1.995-2.854-3.742-2.854h-171.01
	c-1.747,0-3.28,1.169-3.742,2.854l-4.056,14.775c-0.678,2.47,1.18,4.908,3.742,4.908h179.121
	C317.76,134.091,319.619,131.654,318.941,129.184z"/>
<g>
	<path style="fill:#FCD462;" d="M169.71,344.049c0.818,6.221,6.12,10.872,12.396,10.872h87.065c6.275,0,11.578-4.651,12.396-10.872
		l6.953-52.875H162.757L169.71,344.049z"/>
	<polygon style="fill:#FCD462;" points="309.174,134.091 142.103,134.091 150.485,197.839 300.792,197.839 	"/>
</g>
<polygon style="fill:#DC8744;" points="150.485,197.839 162.757,291.174 288.519,291.174 300.792,197.839 "/>
<g>
	<path style="fill:#AD6636;" d="M245.284,264.153c11.24-11.24,15.068-26.456,10.489-37.627c-8.99-0.165-17.963,4.22-23.268,11.502
		c-1.841,2.527-3.276,5.37-4.795,8.379c-0.589,1.165-1.177,2.33-1.791,3.48c-3.662,6.865-8.221,13.221-13.551,18.888
		c-1.039,1.104-3.243,3.437-6.211,5.194C217.434,279.558,233.533,275.903,245.284,264.153z"/>
	<path style="fill:#AD6636;" d="M207.182,263.899c4.9-5.209,9.09-11.05,12.456-17.361c0.588-1.102,1.152-2.221,1.716-3.338
		c1.581-3.131,3.215-6.368,5.396-9.363c5.747-7.889,14.928-13.065,24.588-14.196c-0.135-0.143-0.264-0.291-0.403-0.431
		c-10.85-10.849-30.971-8.319-44.943,5.652c-13.629,13.629-16.364,33.106-6.419,44.124
		C201.775,268.652,204.276,266.989,207.182,263.899z"/>
</g>
<path style="fill:#995B30;" d="M212.369,268.775c5.329-5.667,9.889-12.022,13.551-18.888c0.614-1.15,1.202-2.315,1.791-3.48
	c1.519-3.009,2.954-5.852,4.795-8.379c5.304-7.282,14.278-11.667,23.268-11.502c-1.039-2.536-2.515-4.861-4.433-6.885
	c-9.66,1.132-18.841,6.307-24.588,14.196c-2.182,2.995-3.816,6.232-5.396,9.363c-0.564,1.117-1.128,2.235-1.716,3.338
	c-3.366,6.311-7.557,12.152-12.456,17.361c-2.906,3.09-5.407,4.753-7.607,5.088c0.25,0.277,0.501,0.552,0.767,0.818
	c1.724,1.724,3.685,3.108,5.816,4.164C209.126,272.212,211.33,269.88,212.369,268.775z"/>
</svg>