<?xml version="1.0" encoding="iso-8859-1"?>
<!-- Uploaded to: SVG Repo, www.svgrepo.com, Generator: SVG Repo Mixer Tools -->
<svg height="800px" width="800px" version="1.1" id="Layer_1" xmlns="http://www.w3.org/2000/svg" xmlns:xlink="http://www.w3.org/1999/xlink" 
	 viewBox="0 0 512 512" xml:space="preserve">
<circle style="fill:#FEE187;" cx="256" cy="256" r="256"/>
<path style="fill:#FFC61B;" d="M510.376,284.817L369.778,144.218l-68.299,50.822l-64.124-64.993l-21.74,0.553l-30.829,48.023
	l69.525,69.072v48.559l7.433,98.356L122.28,418.232l90.819,90.165c13.952,2.355,28.279,3.598,42.899,3.598
	C387.641,512,496.054,412.634,510.376,284.817z"/>
<path style="fill:#8BC180;" d="M317.106,184.036c-2.296-3.043-6.622-3.644-9.659-1.348l-45.87,34.63v-12.49
	c0-13.576-6.47-26.565-17.305-34.745l-33.871-25.572c-3.041-2.295-7.363-1.691-9.659,1.348c-2.295,3.039-1.689,7.363,1.348,9.659
	l33.871,25.572c7.404,5.589,11.823,14.464,11.823,23.74v164.948c0,3.808,3.088,6.896,6.896,6.896c3.808,0,6.896-3.088,6.896-6.896
	V234.596l54.181-40.903C318.797,191.398,319.4,187.077,317.106,184.036z"/>
<path style="fill:#3B9B27;" d="M231.44,125.004c-22.061-16.629-72.29-9.864-72.29-9.864s7.327,50.15,29.389,66.779
	s38.655,9.157,50.502-6.559C250.887,159.642,253.502,141.633,231.44,125.004z"/>
<path style="fill:#2E821A;" d="M159.149,115.14c0,0,7.327,50.15,29.389,66.779s38.655,9.157,50.502-6.559L159.149,115.14z"/>
<path style="fill:#FF5419;" d="M340.377,426.667c16.998,0,30.725-13.926,29.3-30.863c-1.227-14.577-13.448-26.026-28.343-26.026
	c-0.771,0-1.527,0.05-2.282,0.112c-0.067,0.005-0.129-0.034-0.152-0.1c-5.856-16.575-21.652-28.457-40.233-28.457
	c-2.003,0-3.974,0.14-5.903,0.409c-5.496,0.767-10.961-1.976-13.648-6.83c-7.271-13.131-21.264-22.023-37.338-22.023
	c-17.253,0-32.106,10.243-38.828,24.978c-1.553,3.406-5.268,5.256-8.925,4.455c-2.943-0.646-5.999-0.988-9.137-0.988
	c-18.58,0-34.376,11.881-40.232,28.457c-0.022,0.064-0.084,0.105-0.152,0.1c-0.755-0.062-1.512-0.112-2.282-0.112
	c-14.895,0-27.115,11.448-28.343,26.026c-1.426,16.937,12.302,30.863,29.3,30.863H340.377z"/>
<path style="fill:#C92F00;" d="M369.676,395.804c-1.227-14.577-13.448-26.026-28.343-26.026c-0.771,0-1.527,0.05-2.282,0.112
	c-0.067,0.005-0.129-0.034-0.152-0.1c-5.856-16.575-21.652-28.457-40.233-28.457c-2.003,0-3.974,0.14-5.903,0.409
	c-5.496,0.767-10.961-1.976-13.648-6.83c-7.273-13.131-21.264-22.023-37.338-22.023c-0.193,0-0.381,0.019-0.574,0.021v113.757
	h99.173C357.374,426.667,371.102,412.741,369.676,395.804z"/>
<path style="fill:#3B9B27;" d="M262.242,245.708c10.207-7.699,33.449-4.57,33.449-4.57s-3.389,23.214-13.596,30.913
	c-10.207,7.699-17.885,4.241-23.368-3.034C253.245,261.742,252.035,253.407,262.242,245.708z"/>
<path style="fill:#2E821A;" d="M295.691,241.138c0,0-3.389,23.214-13.596,30.913c-10.207,7.699-17.885,4.241-23.368-3.034
	L295.691,241.138z"/>
<g>
	<circle style="fill:#E09112;" cx="223.677" cy="350.815" r="5.172"/>
	<circle style="fill:#E09112;" cx="193.939" cy="374.949" r="5.172"/>
	<circle style="fill:#E09112;" cx="279.273" cy="403.394" r="5.172"/>
	<circle style="fill:#E09112;" cx="289.616" cy="374.949" r="5.172"/>
	<circle style="fill:#E09112;" cx="346.505" cy="403.394" r="5.172"/>
	<circle style="fill:#E09112;" cx="165.495" cy="403.394" r="5.172"/>
</g>
<path style="fill:#3B9B27;" d="M285.774,155.681c25.636-19.323,84.004-11.462,84.004-11.462s-8.514,58.277-34.151,77.6
	s-44.918,10.642-58.685-7.623S260.137,175.006,285.774,155.681z"/>
<path style="fill:#2E821A;" d="M369.778,144.218c0,0-8.514,58.277-34.151,77.6s-44.918,10.642-58.685-7.623L369.778,144.218z"/>
</svg>